<svg width="8" height="13" viewBox="0 0 8 13" fill="none" xmlns="http://www.w3.org/2000/svg">
<path d="M0.802081 0.989596C0.705515 1.08596 0.628903 1.20043 0.576631 1.32645C0.524358 1.45246 0.497452 1.58755 0.497452 1.72397C0.497452 1.8604 0.524358 1.99548 0.576631 2.1215C0.628903 2.24751 0.705515 2.36198 0.802081 2.45835L4.84375 6.50001L0.802081 10.5417C0.607313 10.7364 0.497893 11.0006 0.497893 11.2761C0.497893 11.5515 0.607313 11.8157 0.802081 12.0104C0.996849 12.2052 1.26101 12.3146 1.53646 12.3146C1.8119 12.3146 2.07606 12.2052 2.27083 12.0104L7.05208 7.22918C7.14864 7.13281 7.22526 7.01834 7.27753 6.89233C7.3298 6.76632 7.35671 6.63123 7.35671 6.4948C7.35671 6.35838 7.3298 6.22329 7.27753 6.09728C7.22526 5.97126 7.14864 5.8568 7.05208 5.76043L2.27083 0.979179C1.875 0.583346 1.20833 0.583346 0.802081 0.989596Z" fill="#2CAEE2"/>
</svg>
